<?xml version="1.0" standalone="no"?>
<!DOCTYPE svg PUBLIC "-//W3C//DTD SVG 20010904//EN"
 "http://www.w3.org/TR/2001/REC-SVG-20010904/DTD/svg10.dtd">
<svg version="1.0" xmlns="http://www.w3.org/2000/svg"
 width="920.000000pt" height="512.000000pt" viewBox="0 0 920.000000 512.000000"
 preserveAspectRatio="xMidYMid meet">
<metadata>
Created by potrace 1.16, written by Peter Selinger 2001-2019
</metadata>
<g transform="translate(0.000000,512.000000) scale(0.100000,-0.100000)"
fill="#000000" stroke="none">
<path d="M3896 5109 c-53 -13 -98 -42 -144 -94 -49 -56 -57 -82 -87 -305 -14
-102 -28 -195 -31 -207 l-4 -23 -258 0 c-287 0 -343 -8 -444 -62 -68 -36 -158
-128 -193 -199 -37 -72 -55 -161 -55 -276 l0 -103 1920 0 1920 0 0 103 c0 181
-40 289 -144 393 -125 125 -197 144 -548 144 l-258 0 -5 23 c-2 12 -16 105
-30 206 -14 101 -30 201 -37 223 -16 53 -87 131 -146 160 l-47 23 -685 2
c-396 1 -701 -3 -724 -8z m1326 -439 c9 -69 19 -140 21 -157 l6 -33 -650 0
c-615 0 -650 1 -645 18 2 9 12 76 21 147 9 72 18 136 20 143 4 10 130 12 607
10 l603 -3 17 -125z"/>
<path d="M2997 3506 c-101 -27 -188 -123 -203 -224 -11 -71 252 -2948 277
-3034 26 -89 100 -172 191 -214 l63 -29 1275 0 1275 0 61 28 c104 48 182 144
204 251 18 89 272 2928 266 2984 -6 68 -50 147 -105 189 -87 67 17 63 -1700
62 -1242 0 -1566 -3 -1604 -13z m963 -1746 l0 -1120 -239 0 -240 0 -5 53 c-6
47 -156 2150 -156 2176 0 8 94 11 320 11 l320 0 0 -1120z m960 0 l0 -1120
-320 0 -320 0 0 1120 0 1120 320 0 320 0 0 -1120z m960 1109 c0 -26 -150
-2129 -156 -2176 l-5 -53 -240 0 -239 0 0 1120 0 1120 320 0 c226 0 320 -3
320 -11z"/>
</g>
</svg>
